<svg width="92" height="42" viewBox="0 0 92 42" fill="none" xmlns="http://www.w3.org/2000/svg">
<path fill-rule="evenodd" clip-rule="evenodd" d="M25.6833 24.5C27.1333 27.05 29.1333 42.5 35.5333 39.55C36.6833 39 37.1333 37.15 36.1333 35.55C35.9833 35.55 35.6833 35.55 35.5333 36.25C35.5333 36.9 35.7333 36.95 35.5333 37.55C35.0333 38.55 34.3333 38 33.4333 37.55C29.5333 33.1 26.7333 17.7 25.3333 11C24.7833 8.55 24.4833 6 23.9333 2.25C22.5333 0.899997 22.3333 0.699997 20.5833 1.6C19.0333 7.15 18.4833 13.05 15.8833 18.4C14.4833 17 10.6833 16.9 9.78334 19.05C9.48334 19.85 9.38334 21.95 11.1833 21.75C10.4833 21.1 10.7833 20.35 11.1833 19.75C12.1333 18.3 15.0333 19 15.1833 21.1C15.3333 23.4 10.9833 33.5 9.13334 35.15C2.28334 41.2 -0.216662 26.65 5.73334 29.2C6.43334 29.5 6.73334 30.95 7.83334 31.15C8.38334 31.25 8.48334 31.15 8.48334 30.5C8.48334 29.8 7.08334 28.1 6.43334 27.8C2.98334 26.15 0.733337 28.4 0.733337 32.1C0.733337 35.4 5.18334 39.5 9.13334 37.95C15.0833 35.6 16.2833 28.95 18.5833 23.8C19.2333 24.45 20.4333 24.75 21.2833 25.1C22.3833 25.55 24.1333 25.35 25.6833 24.5ZM25.3333 22.4C23.4833 23.45 20.3333 22.7 19.2333 21.1C20.3833 16.55 21.3833 14.35 22.6333 9.65C23.6833 14.2 24.4833 18.75 25.3333 22.4ZM37.25 23C40.6 17.55 44.9 3.9 41.55 1.5C39.45 -2.80142e-06 37.95 1.25 36.95 2.9C34.95 7.5 34.2 12.3 33.65 17.8C33.3 22.95 33.05 38.45 40.85 41.75C41.95 42.2 40.85 40.35 40 38.95C39.75 38.95 39.45 38.7 39.45 38.45C39.15 37.6 38.6 36.8 38.35 35.95C37.25 31.55 36.4 27.35 37.25 23ZM36.95 20.35C36.55 18.35 37.5 10.5 38.35 7.05C38.8 5.3 39.3 3.9 40.25 2.3C41.1 3.15 41 7.65 40.75 8.75C39.75 13.45 37 20.5 36.95 20.35ZM51.5167 27.65C51.3167 29.05 50.5667 32 48.7667 32.65C43.2667 34.5 45.0167 23.25 46.9667 21.3C41.6667 20.55 39.8167 28.25 42.5167 32.05C43.8667 34.5 47.5667 34.7 49.7167 33.75C51.1667 33.1 53.4167 29.85 53.6167 28.05C55.6167 27.8 57.3167 26.9 59.0167 24.85C59.4667 24.4 58.5667 23.55 58.2167 24C56.9667 25.75 55.0667 26.9 53.6667 26.85C53.7667 25.4 53.4667 23.35 53.0167 21.8C52.6167 20.3 51.6667 19.2 50.2667 18.4C49.3167 17.85 48.1667 18.2 47.6667 19.25C47.0667 20.5 46.8667 21.95 47.5167 23.7C48.2167 25.5 49.6167 26.45 51.5167 27.65ZM51.7667 26.45C50.6667 25.8 50.0167 24.95 49.8167 23.85C49.5667 22.6 49.6167 21.35 49.8167 20.05C51.2667 19.5 51.9667 23.45 51.9667 24.3C51.9667 24.95 51.9667 25.55 51.7667 26.45ZM61.8333 30.95C61.5833 31.4 61.3833 29.4 61.3833 29.15C61.3833 28.45 60.9333 26.25 61.3833 25.45C61.9333 24.95 62.1333 24.3 62.4333 23.85C63.8833 21.6 64.7333 19.45 65.4833 16.85C66.2833 12.1 68.3333 4.5 64.3833 1.85C61.2833 -0.250003 58.7333 5.95 58.0333 9.4C56.5333 18.3 57.4833 27.1 58.5833 35.25C58.6833 35.9 59.3833 35.8 59.6833 35.8C60.5333 35.8 61.8833 35.5 62.0333 34.65C62.5333 31.95 63.6833 30.25 64.9333 26.75C65.2333 26.25 67.3833 21.15 67.7333 24.65C67.9333 26.65 67.2333 30.75 67.5333 32.8C67.7833 34.65 69.3833 37.45 72.1333 35.8C73.2833 35.15 76.2833 31.6 76.6833 31.1C77.2333 30.45 76.7833 29.75 76.1833 30.35C75.9833 30.55 75.1333 31.45 73.9833 32.85C70.2833 37.3 69.9333 31.95 70.2833 29.95C70.6333 28.1 71.2833 25.45 70.7833 23.5C70.5333 22.6 69.0833 21.45 68.2333 21.55C63.7333 22.05 63.5333 27.9 61.8333 30.95ZM60.7833 24.35C60.8833 22.85 60.6333 20.45 60.5333 18.85C60.5333 16.3 60.5333 13.5 61.0333 11.05C61.2833 8.35 61.8833 3.35 63.4833 2.75C65.2333 2.1 65.1833 12.2 64.1333 15.85C63.1833 19.05 62.7333 21.3 60.7833 24.35ZM82.3 28.35C82.6 28.85 82.55 28.85 82.6 29.15C82.8 30.15 82.85 31.1 83.1 31.65C83.65 32.45 84.5 33.1 85.3 33C86.15 32.9 90.15 27.85 91.05 25.75C91.45 24.75 90.75 24.85 90.5 24.85C89.4 26.2 86.55 31.35 85.6 30.8C85.2 30.55 85.35 28.6 85.3 26.95C85.05 25.85 83.65 25.05 82.6 25.6C82.3 25.85 82 26.15 81.75 26.45L80.05 28.85C78.75 30.7 78.1 30.5 78 30.3C76.7 27.65 79.95 19.05 82.75 20.5C83.3 21.35 83.15 22.05 83.15 22.55C83.15 23.7 85.45 23.8 85.25 22.5C85.25 22.5 85.2 20.2 83.65 19.55C75 15.9 70.8 37.35 78.75 32.45C80 31.7 81.45 29.7 82.3 28.35Z" fill="#2D2D2D"/>
</svg>
