<?xml version="1.0" encoding="UTF-8" standalone="no"?>
<!-- Created with Inkscape (http://www.inkscape.org/) -->

<svg
   xmlns:dc="http://purl.org/dc/elements/1.1/"
   xmlns:cc="http://creativecommons.org/ns#"
   xmlns:rdf="http://www.w3.org/1999/02/22-rdf-syntax-ns#"
   xmlns:svg="http://www.w3.org/2000/svg"
   xmlns="http://www.w3.org/2000/svg"
   xmlns:sodipodi="http://sodipodi.sourceforge.net/DTD/sodipodi-0.dtd"
   xmlns:inkscape="http://www.inkscape.org/namespaces/inkscape"
   width="210mm"
   height="297mm"
   viewBox="0 0 210 297"
   version="1.1"
   id="svg2699"
   inkscape:version="0.92.4 (5da689c313, 2019-01-14)"
   sodipodi:docname="face5.svg">
  <defs
     id="defs2693">
    <clipPath
       clipPathUnits="userSpaceOnUse"
       id="clipPath1759">
      <path
         d="m 10.471,656.227 c 0,-46.945 38.054,-85.001 84.998,-85.001 v 0 c 46.944,0 85,38.056 85,85.001 v 0 c 0,46.944 -38.056,85 -85,85 v 0 c -46.944,0 -84.998,-38.056 -84.998,-85"
         id="path1757"
         inkscape:connector-curvature="0" />
    </clipPath>
    <clipPath
       clipPathUnits="userSpaceOnUse"
       id="clipPath1743">
      <path
         d="M 0,800 H 800 V 0 H 0 Z"
         id="path1741"
         inkscape:connector-curvature="0" />
    </clipPath>
    <clipPath
       clipPathUnits="userSpaceOnUse"
       id="clipPath1583">
      <path
         d="m 213.489,656.227 c 0,-46.945 38.055,-85.002 85,-85.002 v 0 c 46.945,0 84.999,38.057 84.999,85.002 v 0 c 0,46.944 -38.054,85 -84.999,85 v 0 c -46.945,0 -85,-38.056 -85,-85"
         id="path1581"
         inkscape:connector-curvature="0" />
    </clipPath>
    <clipPath
       clipPathUnits="userSpaceOnUse"
       id="clipPath1567">
      <path
         d="M 0,800 H 800 V 0 H 0 Z"
         id="path1565"
         inkscape:connector-curvature="0" />
    </clipPath>
    <clipPath
       clipPathUnits="userSpaceOnUse"
       id="clipPath1335">
      <path
         d="m 213.49,143.773 c 0,-46.943 38.055,-84.999 85,-84.999 v 0 c 46.944,0 85,38.056 85,84.999 v 0 c 0,46.946 -38.056,85.002 -85,85.002 v 0 c -46.945,0 -85,-38.056 -85,-85.002"
         id="path1333"
         inkscape:connector-curvature="0" />
    </clipPath>
    <clipPath
       clipPathUnits="userSpaceOnUse"
       id="clipPath1319">
      <path
         d="M 0,800 H 800 V 0 H 0 Z"
         id="path1317"
         inkscape:connector-curvature="0" />
    </clipPath>
    <clipPath
       clipPathUnits="userSpaceOnUse"
       id="clipPath1179">
      <path
         d="m 619.532,404.134 c 0,-46.945 38.056,-85.001 85.001,-85.001 v 0 c 46.944,0 84.999,38.056 84.999,85.001 v 0 c 0,46.944 -38.055,85 -84.999,85 v 0 c -46.945,0 -85.001,-38.056 -85.001,-85"
         id="path1177"
         inkscape:connector-curvature="0" />
    </clipPath>
    <clipPath
       clipPathUnits="userSpaceOnUse"
       id="clipPath1163">
      <path
         d="M 0,800 H 800 V 0 H 0 Z"
         id="path1161"
         inkscape:connector-curvature="0" />
    </clipPath>
  </defs>
  <sodipodi:namedview
     id="base"
     pagecolor="#ffffff"
     bordercolor="#666666"
     borderopacity="1.0"
     inkscape:pageopacity="0.0"
     inkscape:pageshadow="2"
     inkscape:zoom="0.35"
     inkscape:cx="-214.28571"
     inkscape:cy="560"
     inkscape:document-units="mm"
     inkscape:current-layer="layer1"
     showgrid="false"
     inkscape:window-width="1920"
     inkscape:window-height="1001"
     inkscape:window-x="2391"
     inkscape:window-y="-9"
     inkscape:window-maximized="1" />
  <metadata
     id="metadata2696">
    <rdf:RDF>
      <cc:Work
         rdf:about="">
        <dc:format>image/svg+xml</dc:format>
        <dc:type
           rdf:resource="http://purl.org/dc/dcmitype/StillImage" />
        <dc:title></dc:title>
      </cc:Work>
    </rdf:RDF>
  </metadata>
  <g
     inkscape:label="Layer 1"
     inkscape:groupmode="layer"
     id="layer1">
    <g
       transform="matrix(0.35277777,0,0,-0.35277777,-193.35913,214.29512)"
       id="g1157">
      <g
         id="g1159"
         clip-path="url(#clipPath1163)">
        <g
           id="g1165"
           transform="translate(789.5332,404.1318)">
          <path
             d="m 0,0 c 0,46.945 -38.057,85 -85,85 -46.943,0 -85,-38.055 -85,-85 0,-46.942 38.057,-84.997 85,-84.997 46.943,0 85,38.055 85,84.997"
             style="fill:#6c9625;fill-opacity:1;fill-rule:nonzero;stroke:none"
             id="path1167"
             inkscape:connector-curvature="0" />
        </g>
        <g
           id="g1169"
           transform="translate(789.5332,404.1318)">
          <path
             d="M 0,0 C 0,46.945 -38.057,85 -85,85 V -84.997 c 46.943,0 85,38.055 85,84.997"
             style="fill:#678e23;fill-opacity:1;fill-rule:nonzero;stroke:none"
             id="path1171"
             inkscape:connector-curvature="0" />
        </g>
      </g>
    </g>
    <g
       transform="matrix(0.35277777,0,0,-0.35277777,-193.35913,214.29512)"
       id="g1173">
      <g
         id="g1175"
         clip-path="url(#clipPath1179)">
        <g
           id="g1181"
           transform="translate(720.1553,366.4307)">
          <path
             d="m 0,0 c 0,0 23.669,-3.46 27.163,-7.1 3.043,-3.171 9.371,-33.535 10.835,-40.198 h -53.464 v 46.012 z"
             style="fill:#2d404e;fill-opacity:1;fill-rule:nonzero;stroke:none"
             id="path1183"
             inkscape:connector-curvature="0" />
        </g>
        <path
           d="m 717.137,355.401 h -24.893 v 27.295 h 24.893 z"
           style="fill:#d9a78c;fill-opacity:1;fill-rule:nonzero;stroke:none"
           id="path1185"
           inkscape:connector-curvature="0" />
        <g
           id="g1187"
           transform="translate(704.6895,460.7988)">
          <path
             d="m 0,0 c 12.086,0 31.201,-6.87 31.201,-39.066 0,-18.589 -6.061,-30.767 -8.702,-34.136 C 20.069,-76.302 6.41,-82.907 0,-82.907 Z"
             style="fill:#eac0a7;fill-opacity:1;fill-rule:nonzero;stroke:none"
             id="path1189"
             inkscape:connector-curvature="0" />
        </g>
        <g
           id="g1191"
           transform="translate(741.9014,414.0566)">
          <path
             d="M 0,0 C 0.533,5.144 -1.918,9.708 -5.474,10.196 -9.03,10.685 -12.345,6.909 -12.878,1.765 -13.411,-3.378 -10.96,-7.943 -7.403,-8.431 -3.847,-8.918 -0.532,-5.144 0,0"
             style="fill:#eac0a7;fill-opacity:1;fill-rule:nonzero;stroke:none"
             id="path1193"
             inkscape:connector-curvature="0" />
        </g>
        <g
           id="g1195"
           transform="translate(704.6904,460.7988)">
          <path
             d="m 0,0 c -12.086,0 -31.2,-6.87 -31.2,-39.066 0,-18.589 6.06,-30.767 8.701,-34.136 2.43,-3.1 16.09,-9.705 22.499,-9.705 z"
             style="fill:#f2d7bc;fill-opacity:1;fill-rule:nonzero;stroke:none"
             id="path1197"
             inkscape:connector-curvature="0" />
        </g>
        <g
           id="g1199"
           transform="translate(667.4785,414.0566)">
          <path
             d="M 0,0 C -0.533,5.144 1.918,9.708 5.474,10.196 9.031,10.685 12.346,6.909 12.879,1.765 13.412,-3.378 10.96,-7.943 7.403,-8.431 3.848,-8.918 0.533,-5.144 0,0"
             style="fill:#f2d7bc;fill-opacity:1;fill-rule:nonzero;stroke:none"
             id="path1201"
             inkscape:connector-curvature="0" />
        </g>
        <g
           id="g1203"
           transform="translate(688.4121,454.0674)">
          <path
             d="m 0,0 c 0,0 -10.557,-12.525 -6.514,-24.204 0.674,-13.925 -0.674,-18.641 -5.165,-22.459 1.122,13.475 -0.224,17.968 -5.165,16.395 C -18.865,-19.712 -14.506,8.724 0,0"
             style="fill:#e6e7e8;fill-opacity:1;fill-rule:nonzero;stroke:none"
             id="path1205"
             inkscape:connector-curvature="0" />
        </g>
        <g
           id="g1207"
           transform="translate(720.8848,454.0674)">
          <path
             d="m 0,0 c 0,0 10.558,-12.525 6.514,-24.204 -0.673,-13.925 0.674,-18.641 5.166,-22.459 -1.122,13.475 0.224,17.968 5.165,16.395 C 18.866,-19.712 14.506,8.724 0,0"
             style="fill:#e6e7e8;fill-opacity:1;fill-rule:nonzero;stroke:none"
             id="path1209"
             inkscape:connector-curvature="0" />
        </g>
        <g
           id="g1211"
           transform="translate(689.2236,366.4307)">
          <path
             d="m 0,0 c 0,0 -23.667,-3.46 -27.163,-7.1 -3.043,-3.171 -9.371,-33.535 -10.834,-40.198 h 53.463 v 46.012 z"
             style="fill:#344650;fill-opacity:1;fill-rule:nonzero;stroke:none"
             id="path1213"
             inkscape:connector-curvature="0" />
        </g>
        <g
           id="g1215"
           transform="translate(720.4414,367.0654)">
          <path
             d="M 0,0 -15.752,-1.921 -31.502,0 l 15.75,-47.933"
             style="fill:#b9c7d0;fill-opacity:1;fill-rule:nonzero;stroke:none"
             id="path1217"
             inkscape:connector-curvature="0" />
        </g>
        <g
           id="g1219"
           transform="translate(703.084,360.5156)">
          <path
             d="m 0,0 -3.148,-32.416 4.755,-8.967 4.756,8.967 L 3.214,0 Z"
             style="fill:#b63c40;fill-opacity:1;fill-rule:nonzero;stroke:none"
             id="path1221"
             inkscape:connector-curvature="0" />
        </g>
        <g
           id="g1223"
           transform="translate(693.334,346.374)">
          <path
             d="m 0,0 -12.527,18.581 c 3.429,1.243 7.109,2.177 10.979,2.807 L 11.357,-27.241 -6.738,-1.334 Z"
             style="fill:#222b30;fill-opacity:1;fill-rule:nonzero;stroke:none"
             id="path1225"
             inkscape:connector-curvature="0" />
        </g>
        <g
           id="g1227"
           transform="translate(716.0488,346.374)">
          <path
             d="M 0,0 12.526,18.581 C 9.097,19.824 5.417,20.758 1.547,21.388 L -11.357,-27.241 6.738,-1.334 Z"
             style="fill:#222b30;fill-opacity:1;fill-rule:nonzero;stroke:none"
             id="path1229"
             inkscape:connector-curvature="0" />
        </g>
        <g
           id="g1231"
           transform="translate(708.9395,360.7852)">
          <path
             d="M 0,0 -4.248,-4.249 -8.497,0 -4.248,4.249 Z"
             style="fill:#b63c40;fill-opacity:1;fill-rule:nonzero;stroke:none"
             id="path1233"
             inkscape:connector-curvature="0" />
        </g>
        <g
           id="g1235"
           transform="translate(704.6895,365.1445)">
          <path
             d="M 0,0 -12.637,5.082 -15.75,1.921 -9.463,-12.024 Z"
             style="fill:#ffffff;fill-opacity:1;fill-rule:nonzero;stroke:none"
             id="path1237"
             inkscape:connector-curvature="0" />
        </g>
        <g
           id="g1239"
           transform="translate(704.6895,365.1445)">
          <path
             d="M 0,0 12.638,5.082 15.752,1.921 9.463,-12.024 Z"
             style="fill:#ffffff;fill-opacity:1;fill-rule:nonzero;stroke:none"
             id="path1241"
             inkscape:connector-curvature="0" />
        </g>
        <g
           id="g1243"
           transform="translate(704.8311,397.7725)">
          <path
             d="m 0,0 v -3.032 l -9.237,-1.991 h -1.926 z"
             style="fill:#5c2f12;fill-opacity:1;fill-rule:nonzero;stroke:none"
             id="path1245"
             inkscape:connector-curvature="0" />
        </g>
        <g
           id="g1247"
           transform="translate(704.7344,397.7725)">
          <path
             d="m 0,0 v -3.032 l 9.237,-1.991 h 1.926 z"
             style="fill:#5c2f12;fill-opacity:1;fill-rule:nonzero;stroke:none"
             id="path1249"
             inkscape:connector-curvature="0" />
        </g>
      </g>
    </g>
  </g>
</svg>
