<?xml version="1.0" encoding="UTF-8" standalone="no"?>
<!-- Created with Inkscape (http://www.inkscape.org/) -->

<svg
   xmlns:dc="http://purl.org/dc/elements/1.1/"
   xmlns:cc="http://creativecommons.org/ns#"
   xmlns:rdf="http://www.w3.org/1999/02/22-rdf-syntax-ns#"
   xmlns:svg="http://www.w3.org/2000/svg"
   xmlns="http://www.w3.org/2000/svg"
   xmlns:sodipodi="http://sodipodi.sourceforge.net/DTD/sodipodi-0.dtd"
   xmlns:inkscape="http://www.inkscape.org/namespaces/inkscape"
   width="210mm"
   height="297mm"
   viewBox="0 0 210 297"
   version="1.1"
   id="svg2699"
   inkscape:version="0.92.4 (5da689c313, 2019-01-14)"
   sodipodi:docname="face8.svg">
  <defs
     id="defs2693">
    <clipPath
       clipPathUnits="userSpaceOnUse"
       id="clipPath1759">
      <path
         d="m 10.471,656.227 c 0,-46.945 38.054,-85.001 84.998,-85.001 v 0 c 46.944,0 85,38.056 85,85.001 v 0 c 0,46.944 -38.056,85 -85,85 v 0 c -46.944,0 -84.998,-38.056 -84.998,-85"
         id="path1757"
         inkscape:connector-curvature="0" />
    </clipPath>
    <clipPath
       clipPathUnits="userSpaceOnUse"
       id="clipPath1743">
      <path
         d="M 0,800 H 800 V 0 H 0 Z"
         id="path1741"
         inkscape:connector-curvature="0" />
    </clipPath>
    <clipPath
       clipPathUnits="userSpaceOnUse"
       id="clipPath1583">
      <path
         d="m 213.489,656.227 c 0,-46.945 38.055,-85.002 85,-85.002 v 0 c 46.945,0 84.999,38.057 84.999,85.002 v 0 c 0,46.944 -38.054,85 -84.999,85 v 0 c -46.945,0 -85,-38.056 -85,-85"
         id="path1581"
         inkscape:connector-curvature="0" />
    </clipPath>
    <clipPath
       clipPathUnits="userSpaceOnUse"
       id="clipPath1567">
      <path
         d="M 0,800 H 800 V 0 H 0 Z"
         id="path1565"
         inkscape:connector-curvature="0" />
    </clipPath>
    <clipPath
       clipPathUnits="userSpaceOnUse"
       id="clipPath1335">
      <path
         d="m 213.49,143.773 c 0,-46.943 38.055,-84.999 85,-84.999 v 0 c 46.944,0 85,38.056 85,84.999 v 0 c 0,46.946 -38.056,85.002 -85,85.002 v 0 c -46.945,0 -85,-38.056 -85,-85.002"
         id="path1333"
         inkscape:connector-curvature="0" />
    </clipPath>
    <clipPath
       clipPathUnits="userSpaceOnUse"
       id="clipPath1319">
      <path
         d="M 0,800 H 800 V 0 H 0 Z"
         id="path1317"
         inkscape:connector-curvature="0" />
    </clipPath>
    <clipPath
       clipPathUnits="userSpaceOnUse"
       id="clipPath1179">
      <path
         d="m 619.532,404.134 c 0,-46.945 38.056,-85.001 85.001,-85.001 v 0 c 46.944,0 84.999,38.056 84.999,85.001 v 0 c 0,46.944 -38.055,85 -84.999,85 v 0 c -46.945,0 -85.001,-38.056 -85.001,-85"
         id="path1177"
         inkscape:connector-curvature="0" />
    </clipPath>
    <clipPath
       clipPathUnits="userSpaceOnUse"
       id="clipPath1163">
      <path
         d="M 0,800 H 800 V 0 H 0 Z"
         id="path1161"
         inkscape:connector-curvature="0" />
    </clipPath>
    <clipPath
       clipPathUnits="userSpaceOnUse"
       id="clipPath1273">
      <path
         d="m 416.512,143.773 c 0,-46.944 38.055,-85 85,-85 v 0 c 46.944,0 85,38.056 85,85 v 0 c 0,46.945 -38.056,85.001 -85,85.001 v 0 c -46.945,0 -85,-38.056 -85,-85.001"
         id="path1271"
         inkscape:connector-curvature="0" />
    </clipPath>
    <clipPath
       clipPathUnits="userSpaceOnUse"
       id="clipPath1257">
      <path
         d="M 0,800 H 800 V 0 H 0 Z"
         id="path1255"
         inkscape:connector-curvature="0" />
    </clipPath>
    <clipPath
       clipPathUnits="userSpaceOnUse"
       id="clipPath1419">
      <path
         d="m 416.512,404.134 c 0,-46.945 38.055,-85.001 85,-85.001 v 0 c 46.944,0 85,38.056 85,85.001 v 0 c 0,46.944 -38.056,85 -85,85 v 0 c -46.945,0 -85,-38.056 -85,-85"
         id="path1417"
         inkscape:connector-curvature="0" />
    </clipPath>
    <clipPath
       clipPathUnits="userSpaceOnUse"
       id="clipPath1403">
      <path
         d="M 0,800 H 800 V 0 H 0 Z"
         id="path1401"
         inkscape:connector-curvature="0" />
    </clipPath>
    <clipPath
       clipPathUnits="userSpaceOnUse"
       id="clipPath1113">
      <path
         d="m 619.533,656.229 c 0,-46.945 38.055,-85.002 85,-85.002 v 0 c 46.944,0 85,38.057 85,85.002 v 0 c 0,46.944 -38.056,84.999 -85,84.999 v 0 c -46.945,0 -85,-38.055 -85,-84.999"
         id="path1111"
         inkscape:connector-curvature="0" />
    </clipPath>
    <clipPath
       clipPathUnits="userSpaceOnUse"
       id="clipPath1097">
      <path
         d="M 0,800 H 800 V 0 H 0 Z"
         id="path1095"
         inkscape:connector-curvature="0" />
    </clipPath>
  </defs>
  <sodipodi:namedview
     id="base"
     pagecolor="#ffffff"
     bordercolor="#666666"
     borderopacity="1.0"
     inkscape:pageopacity="0.0"
     inkscape:pageshadow="2"
     inkscape:zoom="0.35"
     inkscape:cx="-214.28571"
     inkscape:cy="560"
     inkscape:document-units="mm"
     inkscape:current-layer="layer1"
     showgrid="false"
     inkscape:window-width="1920"
     inkscape:window-height="1001"
     inkscape:window-x="2391"
     inkscape:window-y="-9"
     inkscape:window-maximized="1" />
  <metadata
     id="metadata2696">
    <rdf:RDF>
      <cc:Work
         rdf:about="">
        <dc:format>image/svg+xml</dc:format>
        <dc:type
           rdf:resource="http://purl.org/dc/dcmitype/StillImage" />
        <dc:title></dc:title>
      </cc:Work>
    </rdf:RDF>
  </metadata>
  <g
     inkscape:label="Layer 1"
     inkscape:groupmode="layer"
     id="layer1">
    <g
       transform="matrix(0.35277777,0,0,-0.35277777,-410.31714,162.62117)"
       id="g1091">
      <g
         id="g1093"
         clip-path="url(#clipPath1097)">
        <g
           id="g1099"
           transform="translate(789.5313,656.2266)">
          <path
             d="m 0,0 c 0,46.944 -38.056,84.999 -84.998,84.999 -46.945,0 -85,-38.055 -85,-84.999 0,-46.943 38.055,-84.999 85,-84.999 C -38.056,-84.999 0,-46.943 0,0"
             style="fill:#b5332b;fill-opacity:1;fill-rule:nonzero;stroke:none"
             id="path1101"
             inkscape:connector-curvature="0" />
        </g>
        <g
           id="g1103"
           transform="translate(789.5313,656.2266)">
          <path
             d="M 0,0 C 0,46.944 -38.056,84.999 -84.998,84.999 V -84.999 C -38.056,-84.999 0,-46.943 0,0"
             style="fill:#a22d26;fill-opacity:1;fill-rule:nonzero;stroke:none"
             id="path1105"
             inkscape:connector-curvature="0" />
        </g>
      </g>
    </g>
    <g
       transform="matrix(0.35277777,0,0,-0.35277777,-410.31714,162.62117)"
       id="g1107">
      <g
         id="g1109"
         clip-path="url(#clipPath1113)">
        <path
           d="m 716.98,607.496 h -24.894 v 27.295 h 24.894 z"
           style="fill:#d9a78c;fill-opacity:1;fill-rule:nonzero;stroke:none"
           id="path1115"
           inkscape:connector-curvature="0" />
        <g
           id="g1117"
           transform="translate(719.998,618.5264)">
          <path
             d="m 0,0 c 0,0 23.668,-3.46 27.163,-7.101 3.044,-3.17 9.372,-33.534 10.835,-40.198 h -53.464 v 46.012 z"
             style="fill:#c0d4df;fill-opacity:1;fill-rule:nonzero;stroke:none"
             id="path1119"
             inkscape:connector-curvature="0" />
        </g>
        <g
           id="g1121"
           transform="translate(704.5332,712.8945)">
          <path
             d="m 0,0 c 12.086,0 31.199,-6.871 31.199,-39.067 0,-18.589 -6.06,-30.767 -8.701,-34.136 -2.43,-3.1 -16.09,-9.704 -22.498,-9.704 z"
             style="fill:#eac0a7;fill-opacity:1;fill-rule:nonzero;stroke:none"
             id="path1123"
             inkscape:connector-curvature="0" />
        </g>
        <g
           id="g1125"
           transform="translate(741.7441,666.1514)">
          <path
             d="M 0,0 C 0.533,5.144 -1.918,9.709 -5.473,10.197 -9.03,10.685 -12.344,6.909 -12.878,1.765 -13.412,-3.378 -10.96,-7.942 -7.402,-8.431 -3.848,-8.917 -0.533,-5.143 0,0"
             style="fill:#eac0a7;fill-opacity:1;fill-rule:nonzero;stroke:none"
             id="path1127"
             inkscape:connector-curvature="0" />
        </g>
        <g
           id="g1129"
           transform="translate(704.5332,712.8945)">
          <path
             d="m 0,0 c -12.086,0 -31.199,-6.871 -31.199,-39.067 0,-18.589 6.059,-30.767 8.7,-34.136 2.431,-3.1 16.09,-9.704 22.499,-9.704 z"
             style="fill:#f2d7bc;fill-opacity:1;fill-rule:nonzero;stroke:none"
             id="path1131"
             inkscape:connector-curvature="0" />
        </g>
        <g
           id="g1133"
           transform="translate(667.3213,666.1514)">
          <path
             d="M 0,0 C -0.532,5.144 1.919,9.709 5.474,10.197 9.03,10.685 12.345,6.909 12.878,1.765 13.412,-3.378 10.96,-7.942 7.403,-8.431 3.848,-8.917 0.533,-5.143 0,0"
             style="fill:#f2d7bc;fill-opacity:1;fill-rule:nonzero;stroke:none"
             id="path1135"
             inkscape:connector-curvature="0" />
        </g>
        <g
           id="g1137"
           transform="translate(689.0664,618.5264)">
          <path
             d="m 0,0 c 0,0 -23.668,-3.46 -27.162,-7.101 -3.045,-3.17 -9.371,-33.534 -10.836,-40.198 h 53.464 v 46.012 z"
             style="fill:#cfe1eb;fill-opacity:1;fill-rule:nonzero;stroke:none"
             id="path1139"
             inkscape:connector-curvature="0" />
        </g>
        <g
           id="g1141"
           transform="translate(704.5322,617.2393)">
          <path
             d="M 0,0 -12.637,5.082 -15.75,1.921 -9.462,-12.023 Z"
             style="fill:#ffffff;fill-opacity:1;fill-rule:nonzero;stroke:none"
             id="path1143"
             inkscape:connector-curvature="0" />
        </g>
        <g
           id="g1145"
           transform="translate(704.5322,617.2393)">
          <path
             d="M 0,0 12.638,5.082 15.751,1.921 9.462,-12.023 Z"
             style="fill:#ffffff;fill-opacity:1;fill-rule:nonzero;stroke:none"
             id="path1147"
             inkscape:connector-curvature="0" />
        </g>
        <g
           id="g1149"
           transform="translate(736.4111,675.5859)">
          <path
             d="m 0,0 c 0,0 10.229,46.631 -32.093,46.631 -42.543,0 -31.864,-45.346 -31.864,-45.346 0,0 5.813,3.329 5.813,-11.554 h 1.068 c 0,0 2.061,9.979 2.686,18.925 14.961,0 28.195,1.917 39.319,11.124 6.318,0 7.177,-7.868 7.177,-13.888 L -10.66,4.82 c 0,0 2.679,-5.243 2.87,-15.089 h 1.918 c 0,0 -0.283,16.418 5.872,10.269"
             style="fill:#8b5f3c;fill-opacity:1;fill-rule:nonzero;stroke:none"
             id="path1151"
             inkscape:connector-curvature="0" />
        </g>
        <g
           id="g1153"
           transform="translate(704.5332,642.1328)">
          <path
             d="M 0,0 C 5.633,0 10.2,1.861 10.2,4.156 H -10.199 C -10.199,1.861 -5.633,0 0,0"
             style="fill:#ffffff;fill-opacity:1;fill-rule:nonzero;stroke:none"
             id="path1155"
             inkscape:connector-curvature="0" />
        </g>
      </g>
    </g>
  </g>
</svg>
