<?xml version="1.0" encoding="UTF-8" standalone="no"?>
<!-- Created with Inkscape (http://www.inkscape.org/) -->

<svg
   xmlns:dc="http://purl.org/dc/elements/1.1/"
   xmlns:cc="http://creativecommons.org/ns#"
   xmlns:rdf="http://www.w3.org/1999/02/22-rdf-syntax-ns#"
   xmlns:svg="http://www.w3.org/2000/svg"
   xmlns="http://www.w3.org/2000/svg"
   xmlns:sodipodi="http://sodipodi.sourceforge.net/DTD/sodipodi-0.dtd"
   xmlns:inkscape="http://www.inkscape.org/namespaces/inkscape"
   width="210mm"
   height="297mm"
   viewBox="0 0 210 297"
   version="1.1"
   id="svg2699"
   inkscape:version="0.92.4 (5da689c313, 2019-01-14)"
   sodipodi:docname="face2.svg">
  <defs
     id="defs2693">
    <clipPath
       clipPathUnits="userSpaceOnUse"
       id="clipPath1759">
      <path
         d="m 10.471,656.227 c 0,-46.945 38.054,-85.001 84.998,-85.001 v 0 c 46.944,0 85,38.056 85,85.001 v 0 c 0,46.944 -38.056,85 -85,85 v 0 c -46.944,0 -84.998,-38.056 -84.998,-85"
         id="path1757"
         inkscape:connector-curvature="0" />
    </clipPath>
    <clipPath
       clipPathUnits="userSpaceOnUse"
       id="clipPath1743">
      <path
         d="M 0,800 H 800 V 0 H 0 Z"
         id="path1741"
         inkscape:connector-curvature="0" />
    </clipPath>
  </defs>
  <sodipodi:namedview
     id="base"
     pagecolor="#ffffff"
     bordercolor="#666666"
     borderopacity="1.0"
     inkscape:pageopacity="0.0"
     inkscape:pageshadow="2"
     inkscape:zoom="0.35"
     inkscape:cx="-214.28571"
     inkscape:cy="560"
     inkscape:document-units="mm"
     inkscape:current-layer="layer1"
     showgrid="false"
     inkscape:window-width="1920"
     inkscape:window-height="1001"
     inkscape:window-x="2391"
     inkscape:window-y="-9"
     inkscape:window-maximized="1" />
  <metadata
     id="metadata2696">
    <rdf:RDF>
      <cc:Work
         rdf:about="">
        <dc:format>image/svg+xml</dc:format>
        <dc:type
           rdf:resource="http://purl.org/dc/dcmitype/StillImage" />
        <dc:title></dc:title>
      </cc:Work>
    </rdf:RDF>
  </metadata>
  <g
     inkscape:label="Layer 1"
     inkscape:groupmode="layer"
     id="layer1">
    <g
       transform="matrix(0.35277777,0,0,-0.35277777,-15.535708,512.6268)"
       id="g1737">
      <g
         id="g1739"
         clip-path="url(#clipPath1743)">
        <g
           id="g1745"
           transform="translate(180.4668,656.2256)">
          <path
             d="m 0,0 c 0,46.944 -38.056,85 -85,85 -46.944,0 -85,-38.056 -85,-85 0,-46.944 38.056,-85 85,-85 46.944,0 85,38.056 85,85"
             style="fill:#29a69c;fill-opacity:1;fill-rule:nonzero;stroke:none"
             id="path1747"
             inkscape:connector-curvature="0" />
        </g>
        <g
           id="g1749"
           transform="translate(180.4668,656.2256)">
          <path
             d="M 0,0 C 0,46.944 -38.056,85 -85,85 V -85 c 46.944,0 85,38.056 85,85"
             style="fill:#27a096;fill-opacity:1;fill-rule:nonzero;stroke:none"
             id="path1751"
             inkscape:connector-curvature="0" />
        </g>
      </g>
    </g>
    <g
       transform="matrix(0.35277777,0,0,-0.35277777,-15.535708,512.6268)"
       id="g1753">
      <g
         id="g1755"
         clip-path="url(#clipPath1759)">
        <g
           id="g1761"
           transform="translate(132.6714,686.0967)">
          <path
             d="m 0,0 c 0,20.546 -16.656,37.202 -37.202,37.202 -20.546,0 -37.201,-16.656 -37.201,-37.202 0,-20.546 16.655,-37.201 37.201,-37.201 C -16.656,-37.201 0,-20.546 0,0"
             style="fill:#482b1b;fill-opacity:1;fill-rule:nonzero;stroke:none"
             id="path1763"
             inkscape:connector-curvature="0" />
        </g>
        <g
           id="g1765"
           transform="translate(107.9165,606.4307)">
          <path
             d="M 0,0 -12.604,-35.355 -24.893,0 V 27.295 H 0 Z"
             style="fill:#eac8ad;fill-opacity:1;fill-rule:nonzero;stroke:none"
             id="path1767"
             inkscape:connector-curvature="0" />
        </g>
        <g
           id="g1769"
           transform="translate(95.4697,709.373)">
          <path
             d="m 0,0 c -12.086,0 -31.199,-6.87 -31.199,-39.066 0,-18.589 7.245,-27.354 9.886,-30.723 2.431,-3.099 14.904,-13.118 21.313,-13.118 z"
             style="fill:#f2d7bc;fill-opacity:1;fill-rule:nonzero;stroke:none"
             id="path1771"
             inkscape:connector-curvature="0" />
        </g>
        <g
           id="g1773"
           transform="translate(58.2578,662.6299)">
          <path
             d="M 0,0 C -0.533,5.145 1.919,9.709 5.474,10.197 9.031,10.685 12.345,6.91 12.878,1.766 13.412,-3.377 10.96,-7.941 7.404,-8.43 3.848,-8.917 0.533,-5.143 0,0"
             style="fill:#f2d7bc;fill-opacity:1;fill-rule:nonzero;stroke:none"
             id="path1775"
             inkscape:connector-curvature="0" />
        </g>
        <g
           id="g1777"
           transform="translate(95.3711,709.373)">
          <path
             d="m 0,0 c 12.086,0 31.199,-6.87 31.199,-39.066 0,-18.589 -7.245,-27.354 -9.886,-30.723 C 18.883,-72.888 6.409,-82.907 0,-82.907 Z"
             style="fill:#eac0a7;fill-opacity:1;fill-rule:nonzero;stroke:none"
             id="path1779"
             inkscape:connector-curvature="0" />
        </g>
        <g
           id="g1781"
           transform="translate(132.6816,662.6299)">
          <path
             d="M 0,0 C 0.533,5.145 -1.919,9.709 -5.474,10.197 -9.031,10.685 -12.345,6.91 -12.878,1.766 -13.412,-3.377 -10.96,-7.941 -7.404,-8.43 -3.848,-8.917 -0.533,-5.143 0,0"
             style="fill:#eac0a7;fill-opacity:1;fill-rule:nonzero;stroke:none"
             id="path1783"
             inkscape:connector-curvature="0" />
        </g>
        <g
           id="g1785"
           transform="translate(95.3125,571.0752)">
          <path
             d="m 0,0 v 34 c 0,0 -9.287,2.302 -11.333,9.823 -0.984,3.615 -0.956,6.517 -0.956,6.517 0,0 -20.305,-6.859 -24.838,-13.942 C -40.899,25.17 -41.933,0 -41.933,0 Z"
             style="fill:#eac8ad;fill-opacity:1;fill-rule:nonzero;stroke:none"
             id="path1787"
             inkscape:connector-curvature="0" />
        </g>
        <g
           id="g1789"
           transform="translate(95.3125,571.0752)">
          <path
             d="m 0,0 v 34 c 0,0 9.286,2.302 11.333,9.823 0.984,3.615 0.956,6.517 0.956,6.517 0,0 20.305,-6.859 24.837,-13.942 C 40.899,25.17 41.933,0 41.933,0 Z"
             style="fill:#eac8ad;fill-opacity:1;fill-rule:nonzero;stroke:none"
             id="path1791"
             inkscape:connector-curvature="0" />
        </g>
        <g
           id="g1793"
           transform="translate(95.3125,571.0752)">
          <path
             d="m 0,0 v 34 c 0,0 -9.287,2.302 -11.333,9.823 -0.984,3.615 -0.956,6.517 -0.956,6.517 0,0 -20.305,-6.859 -24.838,-13.942 C -40.899,25.17 -41.933,0 -41.933,0 Z"
             style="fill:#eac8ad;fill-opacity:1;fill-rule:nonzero;stroke:none"
             id="path1795"
             inkscape:connector-curvature="0" />
        </g>
        <g
           id="g1797"
           transform="translate(95.3125,571.0752)">
          <path
             d="m 0,0 v 34 c 0,0 9.286,2.302 11.333,9.823 0.984,3.615 0.956,6.517 0.956,6.517 0,0 20.305,-6.859 24.837,-13.942 C 40.899,25.17 41.933,0 41.933,0 Z"
             style="fill:#eac8ad;fill-opacity:1;fill-rule:nonzero;stroke:none"
             id="path1799"
             inkscape:connector-curvature="0" />
        </g>
        <g
           id="g1801"
           transform="translate(95.4697,637.8047)">
          <path
             d="M 0,0 C 4.711,0 8.531,2.893 8.531,6.462 H -8.531 C -8.531,2.893 -4.711,0 0,0"
             style="fill:#ffffff;fill-opacity:1;fill-rule:nonzero;stroke:none"
             id="path1803"
             inkscape:connector-curvature="0" />
        </g>
        <g
           id="g1805"
           transform="translate(93.7109,718.6367)">
          <path
             d="m 0,0 c -22.083,0 -28.798,-19.348 -28.798,-28.258 -8.009,-11.132 0.722,-21.092 6.903,-24.591 v 5.478 c 0,7.199 6.845,13.865 17.126,12.756 9.214,-0.995 15.017,4.212 19.918,13.065 C 21.201,-9.694 13.648,0 0,0"
             style="fill:#482b1b;fill-opacity:1;fill-rule:nonzero;stroke:none"
             id="path1807"
             inkscape:connector-curvature="0" />
        </g>
        <g
           id="g1809"
           transform="translate(107.9165,700.7266)">
          <path
             d="m 0,0 c 0,0 5.16,-20.948 19.292,-27.899 2.515,18.832 4.001,14.865 0,24.782 C 15.29,6.8 0,14.166 0,14.166 Z"
             style="fill:#482b1b;fill-opacity:1;fill-rule:nonzero;stroke:none"
             id="path1811"
             inkscape:connector-curvature="0" />
        </g>
        <g
           id="g1813"
           transform="translate(132.439,607.4736)">
          <path
             d="M 0,0 C -3.781,5.908 -18.528,11.657 -23.318,13.402 -23.602,6.019 -29.674,0.119 -37.126,0.119 c -7.454,0 -13.525,5.9 -13.81,13.283 C -55.726,11.657 -70.472,5.908 -74.254,0 -78.026,-11.229 -79.06,-36.398 -79.06,-36.398 h 41.934 41.933 c 0,0 -1.035,25.169 -4.807,36.398"
             style="fill:#faa21c;fill-opacity:1;fill-rule:nonzero;stroke:none"
             id="path1815"
             inkscape:connector-curvature="0" />
        </g>
        <g
           id="g1817"
           transform="translate(137.2456,571.0752)">
          <path
             d="m 0,0 c 0,0 -1.034,25.17 -4.807,36.398 -3.78,5.909 -18.527,11.658 -23.318,13.403 -0.283,-7.384 -6.355,-13.283 -13.808,-13.283 V 0 Z"
             style="fill:#f68e1f;fill-opacity:1;fill-rule:nonzero;stroke:none"
             id="path1819"
             inkscape:connector-curvature="0" />
        </g>
        <g
           id="g1821"
           transform="translate(76.9497,619.1143)">
          <path
             d="M 0,0 C 1.379,-8.901 9.075,-15.715 18.363,-15.715 27.65,-15.715 35.346,-8.901 36.725,0 34.859,0.763 33.258,1.366 32.171,1.762 31.888,-5.622 25.815,-11.521 18.363,-11.521 10.91,-11.521 4.838,-5.622 4.554,1.762 3.468,1.366 1.867,0.763 0,0"
             style="fill:#39b54a;fill-opacity:1;fill-rule:nonzero;stroke:none"
             id="path1823"
             inkscape:connector-curvature="0" />
        </g>
        <g
           id="g1825"
           transform="translate(107.9165,723.2988)">
          <path
             d="m 0,0 c 0,6.874 -5.573,12.446 -12.447,12.446 -6.873,0 -12.446,-5.572 -12.446,-12.446 0,-6.874 5.573,-12.447 12.446,-12.447 C -5.573,-12.447 0,-6.874 0,0"
             style="fill:#482b1b;fill-opacity:1;fill-rule:nonzero;stroke:none"
             id="path1827"
             inkscape:connector-curvature="0" />
        </g>
      </g>
    </g>
  </g>
</svg>
