<?xml version="1.0" encoding="UTF-8" standalone="no"?>
<!-- Created with Inkscape (http://www.inkscape.org/) -->

<svg
   xmlns:dc="http://purl.org/dc/elements/1.1/"
   xmlns:cc="http://creativecommons.org/ns#"
   xmlns:rdf="http://www.w3.org/1999/02/22-rdf-syntax-ns#"
   xmlns:svg="http://www.w3.org/2000/svg"
   xmlns="http://www.w3.org/2000/svg"
   xmlns:sodipodi="http://sodipodi.sourceforge.net/DTD/sodipodi-0.dtd"
   xmlns:inkscape="http://www.inkscape.org/namespaces/inkscape"
   width="210mm"
   height="297mm"
   viewBox="0 0 210 297"
   version="1.1"
   id="svg2699"
   inkscape:version="0.92.4 (5da689c313, 2019-01-14)"
   sodipodi:docname="face6.svg">
  <defs
     id="defs2693">
    <clipPath
       clipPathUnits="userSpaceOnUse"
       id="clipPath1759">
      <path
         d="m 10.471,656.227 c 0,-46.945 38.054,-85.001 84.998,-85.001 v 0 c 46.944,0 85,38.056 85,85.001 v 0 c 0,46.944 -38.056,85 -85,85 v 0 c -46.944,0 -84.998,-38.056 -84.998,-85"
         id="path1757"
         inkscape:connector-curvature="0" />
    </clipPath>
    <clipPath
       clipPathUnits="userSpaceOnUse"
       id="clipPath1743">
      <path
         d="M 0,800 H 800 V 0 H 0 Z"
         id="path1741"
         inkscape:connector-curvature="0" />
    </clipPath>
    <clipPath
       clipPathUnits="userSpaceOnUse"
       id="clipPath1583">
      <path
         d="m 213.489,656.227 c 0,-46.945 38.055,-85.002 85,-85.002 v 0 c 46.945,0 84.999,38.057 84.999,85.002 v 0 c 0,46.944 -38.054,85 -84.999,85 v 0 c -46.945,0 -85,-38.056 -85,-85"
         id="path1581"
         inkscape:connector-curvature="0" />
    </clipPath>
    <clipPath
       clipPathUnits="userSpaceOnUse"
       id="clipPath1567">
      <path
         d="M 0,800 H 800 V 0 H 0 Z"
         id="path1565"
         inkscape:connector-curvature="0" />
    </clipPath>
    <clipPath
       clipPathUnits="userSpaceOnUse"
       id="clipPath1335">
      <path
         d="m 213.49,143.773 c 0,-46.943 38.055,-84.999 85,-84.999 v 0 c 46.944,0 85,38.056 85,84.999 v 0 c 0,46.946 -38.056,85.002 -85,85.002 v 0 c -46.945,0 -85,-38.056 -85,-85.002"
         id="path1333"
         inkscape:connector-curvature="0" />
    </clipPath>
    <clipPath
       clipPathUnits="userSpaceOnUse"
       id="clipPath1319">
      <path
         d="M 0,800 H 800 V 0 H 0 Z"
         id="path1317"
         inkscape:connector-curvature="0" />
    </clipPath>
    <clipPath
       clipPathUnits="userSpaceOnUse"
       id="clipPath1179">
      <path
         d="m 619.532,404.134 c 0,-46.945 38.056,-85.001 85.001,-85.001 v 0 c 46.944,0 84.999,38.056 84.999,85.001 v 0 c 0,46.944 -38.055,85 -84.999,85 v 0 c -46.945,0 -85.001,-38.056 -85.001,-85"
         id="path1177"
         inkscape:connector-curvature="0" />
    </clipPath>
    <clipPath
       clipPathUnits="userSpaceOnUse"
       id="clipPath1163">
      <path
         d="M 0,800 H 800 V 0 H 0 Z"
         id="path1161"
         inkscape:connector-curvature="0" />
    </clipPath>
    <clipPath
       clipPathUnits="userSpaceOnUse"
       id="clipPath1273">
      <path
         d="m 416.512,143.773 c 0,-46.944 38.055,-85 85,-85 v 0 c 46.944,0 85,38.056 85,85 v 0 c 0,46.945 -38.056,85.001 -85,85.001 v 0 c -46.945,0 -85,-38.056 -85,-85.001"
         id="path1271"
         inkscape:connector-curvature="0" />
    </clipPath>
    <clipPath
       clipPathUnits="userSpaceOnUse"
       id="clipPath1257">
      <path
         d="M 0,800 H 800 V 0 H 0 Z"
         id="path1255"
         inkscape:connector-curvature="0" />
    </clipPath>
  </defs>
  <sodipodi:namedview
     id="base"
     pagecolor="#ffffff"
     bordercolor="#666666"
     borderopacity="1.0"
     inkscape:pageopacity="0.0"
     inkscape:pageshadow="2"
     inkscape:zoom="0.35"
     inkscape:cx="-214.28571"
     inkscape:cy="560"
     inkscape:document-units="mm"
     inkscape:current-layer="layer1"
     showgrid="false"
     inkscape:window-width="1920"
     inkscape:window-height="1001"
     inkscape:window-x="2391"
     inkscape:window-y="-9"
     inkscape:window-maximized="1" />
  <metadata
     id="metadata2696">
    <rdf:RDF>
      <cc:Work
         rdf:about="">
        <dc:format>image/svg+xml</dc:format>
        <dc:type
           rdf:resource="http://purl.org/dc/dcmitype/StillImage" />
        <dc:title></dc:title>
      </cc:Work>
    </rdf:RDF>
  </metadata>
  <g
     inkscape:label="Layer 1"
     inkscape:groupmode="layer"
     id="layer1">
    <g
       transform="matrix(0.35277777,0,0,-0.35277777,-181.45754,37.02356)"
       id="g1251">
      <g
         id="g1253"
         clip-path="url(#clipPath1257)">
        <g
           id="g1259"
           transform="translate(586.5107,143.7744)">
          <path
             d="M 0,0 C 0,46.943 -38.056,84.999 -84.999,84.999 -131.943,84.999 -170,46.943 -170,0 c 0,-46.944 38.057,-85 85.001,-85 C -38.056,-85 0,-46.944 0,0"
             style="fill:#f6a100;fill-opacity:1;fill-rule:nonzero;stroke:none"
             id="path1261"
             inkscape:connector-curvature="0" />
        </g>
        <g
           id="g1263"
           transform="translate(586.5107,143.7744)">
          <path
             d="M 0,0 C 0,46.943 -38.056,84.999 -84.999,84.999 V -85 C -38.056,-85 0,-46.944 0,0"
             style="fill:#ed9a00;fill-opacity:1;fill-rule:nonzero;stroke:none"
             id="path1265"
             inkscape:connector-curvature="0" />
        </g>
      </g>
    </g>
    <g
       transform="matrix(0.35277777,0,0,-0.35277777,-181.45754,37.02356)"
       id="g1267">
      <g
         id="g1269"
         clip-path="url(#clipPath1273)">
        <path
           d="M 514.273,95.041 H 489.38 v 27.295 h 24.893 z"
           style="fill:#d9a78c;fill-opacity:1;fill-rule:nonzero;stroke:none"
           id="path1275"
           inkscape:connector-curvature="0" />
        <g
           id="g1277"
           transform="translate(514.1162,107.8135)">
          <path
             d="m 0,0 h 4.245 c 7.908,-2.038 16.562,-3.483 22.321,-10.152 3.589,-4.156 9.823,-38.889 9.823,-38.889 H 21.31 -12.447 v 31.812 7.511 C -5.573,-9.718 0,-5.367 0,0"
             style="fill:#c74043;fill-opacity:1;fill-rule:nonzero;stroke:none"
             id="path1279"
             inkscape:connector-curvature="0" />
        </g>
        <g
           id="g1281"
           transform="translate(489.2217,107.8135)">
          <path
             d="m 0,0 h -4.236 c -7.909,-2.038 -16.571,-3.483 -22.33,-10.152 -3.589,-4.156 -9.823,-38.889 -9.823,-38.889 h 15.079 33.757 v 31.812 7.511 C 5.573,-9.718 0,-5.367 0,0"
             style="fill:#c74043;fill-opacity:1;fill-rule:nonzero;stroke:none"
             id="path1283"
             inkscape:connector-curvature="0" />
        </g>
        <g
           id="g1285"
           transform="translate(501.8262,200.4395)">
          <path
             d="m 0,0 c 12.086,0 31.199,-6.871 31.199,-39.066 0,-18.59 -6.06,-30.768 -8.701,-34.137 -2.43,-3.1 -16.09,-9.704 -22.498,-9.704 z"
             style="fill:#eac0a7;fill-opacity:1;fill-rule:nonzero;stroke:none"
             id="path1287"
             inkscape:connector-curvature="0" />
        </g>
        <g
           id="g1289"
           transform="translate(539.0371,153.6963)">
          <path
             d="M 0,0 C 0.533,5.144 -1.918,9.709 -5.473,10.197 -9.03,10.685 -12.344,6.909 -12.878,1.765 -13.411,-3.378 -10.96,-7.942 -7.402,-8.431 -3.848,-8.917 -0.533,-5.143 0,0"
             style="fill:#eac0a7;fill-opacity:1;fill-rule:nonzero;stroke:none"
             id="path1291"
             inkscape:connector-curvature="0" />
        </g>
        <g
           id="g1293"
           transform="translate(501.8262,200.4395)">
          <path
             d="m 0,0 c -12.086,0 -31.199,-6.871 -31.199,-39.066 0,-18.59 6.059,-30.768 8.701,-34.137 2.43,-3.1 16.089,-9.704 22.498,-9.704 z"
             style="fill:#f2d7bc;fill-opacity:1;fill-rule:nonzero;stroke:none"
             id="path1295"
             inkscape:connector-curvature="0" />
        </g>
        <g
           id="g1297"
           transform="translate(464.6152,153.6963)">
          <path
             d="M 0,0 C -0.533,5.144 1.918,9.709 5.473,10.197 9.029,10.685 12.344,6.909 12.877,1.765 13.411,-3.378 10.959,-7.942 7.402,-8.431 3.848,-8.917 0.532,-5.143 0,0"
             style="fill:#f2d7bc;fill-opacity:1;fill-rule:nonzero;stroke:none"
             id="path1299"
             inkscape:connector-curvature="0" />
        </g>
        <g
           id="g1301"
           transform="translate(501.8262,129.6777)">
          <path
             d="M 0,0 C 5.634,0 10.2,1.861 10.2,4.156 H -10.199 C -10.199,1.861 -5.633,0 0,0"
             style="fill:#ffffff;fill-opacity:1;fill-rule:nonzero;stroke:none"
             id="path1303"
             inkscape:connector-curvature="0" />
        </g>
        <g
           id="g1305"
           transform="translate(526.9688,158.8203)">
          <path
             d="M 0,0 C 1.301,3.32 3.875,5.446 6.596,5.073 6.602,5.072 6.609,5.07 6.616,5.068 7.85,8.888 8.292,13.428 6.6,18.246 c -9,25.623 1.222,30.197 1.222,30.197 0,0 -9.953,0.446 -17.674,-5.945 5.325,8.254 7.721,10.385 7.721,10.385 0,0 -11.182,2.395 -23.162,-9.852 2.662,6.657 5.857,10.041 5.857,10.041 0,0 -25.027,-0.189 -34.08,-18.295 -5.16,-10.319 -5.558,-21.499 -4.309,-29.949 0.305,0.11 0.618,0.2 0.944,0.245 1.181,0.161 2.332,-0.153 3.365,-0.825 v 7.898 c 4.793,2.131 9.852,4.793 9.585,15.444 h 17.306 17.838 c 0,0 -0.799,-11.983 8.787,-14.91 z"
             style="fill:#553828;fill-opacity:1;fill-rule:nonzero;stroke:none"
             id="path1307"
             inkscape:connector-curvature="0" />
        </g>
        <g
           id="g1309"
           transform="translate(501.6738,94.9434)">
          <path
             d="M 0,0 C 9.215,0 16.688,5.762 16.688,12.87 H 12.412 C 12.412,7.513 6.857,3.168 0,3.153 -6.859,3.168 -12.413,7.513 -12.413,12.87 h -4.275 C -16.688,5.762 -9.217,0 0,0"
             style="fill:#0f958c;fill-opacity:1;fill-rule:nonzero;stroke:none"
             id="path1311"
             inkscape:connector-curvature="0" />
        </g>
      </g>
    </g>
  </g>
</svg>
