<?xml version="1.0" encoding="UTF-8" standalone="no"?>
<!-- Created with Inkscape (http://www.inkscape.org/) -->

<svg
   xmlns:dc="http://purl.org/dc/elements/1.1/"
   xmlns:cc="http://creativecommons.org/ns#"
   xmlns:rdf="http://www.w3.org/1999/02/22-rdf-syntax-ns#"
   xmlns:svg="http://www.w3.org/2000/svg"
   xmlns="http://www.w3.org/2000/svg"
   xmlns:sodipodi="http://sodipodi.sourceforge.net/DTD/sodipodi-0.dtd"
   xmlns:inkscape="http://www.inkscape.org/namespaces/inkscape"
   width="210mm"
   height="297mm"
   viewBox="0 0 210 297"
   version="1.1"
   id="svg2699"
   inkscape:version="0.92.4 (5da689c313, 2019-01-14)"
   sodipodi:docname="face7.svg">
  <defs
     id="defs2693">
    <clipPath
       clipPathUnits="userSpaceOnUse"
       id="clipPath1759">
      <path
         d="m 10.471,656.227 c 0,-46.945 38.054,-85.001 84.998,-85.001 v 0 c 46.944,0 85,38.056 85,85.001 v 0 c 0,46.944 -38.056,85 -85,85 v 0 c -46.944,0 -84.998,-38.056 -84.998,-85"
         id="path1757"
         inkscape:connector-curvature="0" />
    </clipPath>
    <clipPath
       clipPathUnits="userSpaceOnUse"
       id="clipPath1743">
      <path
         d="M 0,800 H 800 V 0 H 0 Z"
         id="path1741"
         inkscape:connector-curvature="0" />
    </clipPath>
    <clipPath
       clipPathUnits="userSpaceOnUse"
       id="clipPath1583">
      <path
         d="m 213.489,656.227 c 0,-46.945 38.055,-85.002 85,-85.002 v 0 c 46.945,0 84.999,38.057 84.999,85.002 v 0 c 0,46.944 -38.054,85 -84.999,85 v 0 c -46.945,0 -85,-38.056 -85,-85"
         id="path1581"
         inkscape:connector-curvature="0" />
    </clipPath>
    <clipPath
       clipPathUnits="userSpaceOnUse"
       id="clipPath1567">
      <path
         d="M 0,800 H 800 V 0 H 0 Z"
         id="path1565"
         inkscape:connector-curvature="0" />
    </clipPath>
    <clipPath
       clipPathUnits="userSpaceOnUse"
       id="clipPath1335">
      <path
         d="m 213.49,143.773 c 0,-46.943 38.055,-84.999 85,-84.999 v 0 c 46.944,0 85,38.056 85,84.999 v 0 c 0,46.946 -38.056,85.002 -85,85.002 v 0 c -46.945,0 -85,-38.056 -85,-85.002"
         id="path1333"
         inkscape:connector-curvature="0" />
    </clipPath>
    <clipPath
       clipPathUnits="userSpaceOnUse"
       id="clipPath1319">
      <path
         d="M 0,800 H 800 V 0 H 0 Z"
         id="path1317"
         inkscape:connector-curvature="0" />
    </clipPath>
    <clipPath
       clipPathUnits="userSpaceOnUse"
       id="clipPath1179">
      <path
         d="m 619.532,404.134 c 0,-46.945 38.056,-85.001 85.001,-85.001 v 0 c 46.944,0 84.999,38.056 84.999,85.001 v 0 c 0,46.944 -38.055,85 -84.999,85 v 0 c -46.945,0 -85.001,-38.056 -85.001,-85"
         id="path1177"
         inkscape:connector-curvature="0" />
    </clipPath>
    <clipPath
       clipPathUnits="userSpaceOnUse"
       id="clipPath1163">
      <path
         d="M 0,800 H 800 V 0 H 0 Z"
         id="path1161"
         inkscape:connector-curvature="0" />
    </clipPath>
    <clipPath
       clipPathUnits="userSpaceOnUse"
       id="clipPath1273">
      <path
         d="m 416.512,143.773 c 0,-46.944 38.055,-85 85,-85 v 0 c 46.944,0 85,38.056 85,85 v 0 c 0,46.945 -38.056,85.001 -85,85.001 v 0 c -46.945,0 -85,-38.056 -85,-85.001"
         id="path1271"
         inkscape:connector-curvature="0" />
    </clipPath>
    <clipPath
       clipPathUnits="userSpaceOnUse"
       id="clipPath1257">
      <path
         d="M 0,800 H 800 V 0 H 0 Z"
         id="path1255"
         inkscape:connector-curvature="0" />
    </clipPath>
    <clipPath
       clipPathUnits="userSpaceOnUse"
       id="clipPath1419">
      <path
         d="m 416.512,404.134 c 0,-46.945 38.055,-85.001 85,-85.001 v 0 c 46.944,0 85,38.056 85,85.001 v 0 c 0,46.944 -38.056,85 -85,85 v 0 c -46.945,0 -85,-38.056 -85,-85"
         id="path1417"
         inkscape:connector-curvature="0" />
    </clipPath>
    <clipPath
       clipPathUnits="userSpaceOnUse"
       id="clipPath1403">
      <path
         d="M 0,800 H 800 V 0 H 0 Z"
         id="path1401"
         inkscape:connector-curvature="0" />
    </clipPath>
  </defs>
  <sodipodi:namedview
     id="base"
     pagecolor="#ffffff"
     bordercolor="#666666"
     borderopacity="1.0"
     inkscape:pageopacity="0.0"
     inkscape:pageshadow="2"
     inkscape:zoom="0.35"
     inkscape:cx="-214.28571"
     inkscape:cy="560"
     inkscape:document-units="mm"
     inkscape:current-layer="layer1"
     showgrid="false"
     inkscape:window-width="1920"
     inkscape:window-height="1001"
     inkscape:window-x="2391"
     inkscape:window-y="-9"
     inkscape:window-maximized="1" />
  <metadata
     id="metadata2696">
    <rdf:RDF>
      <cc:Work
         rdf:about="">
        <dc:format>image/svg+xml</dc:format>
        <dc:type
           rdf:resource="http://purl.org/dc/dcmitype/StillImage" />
        <dc:title></dc:title>
      </cc:Work>
    </rdf:RDF>
  </metadata>
  <g
     inkscape:label="Layer 1"
     inkscape:groupmode="layer"
     id="layer1">
    <g
       transform="matrix(0.35277777,0,0,-0.35277777,-114.17813,197.66434)"
       id="g1397">
      <g
         id="g1399"
         clip-path="url(#clipPath1403)">
        <g
           id="g1405"
           transform="translate(586.5107,404.1328)">
          <path
             d="m 0,0 c 0,46.944 -38.055,85 -84.999,85 -46.944,0 -84.999,-38.056 -84.999,-85 0,-46.943 38.055,-84.998 84.999,-84.998 C -38.055,-84.998 0,-46.943 0,0"
             style="fill:#29a69c;fill-opacity:1;fill-rule:nonzero;stroke:none"
             id="path1407"
             inkscape:connector-curvature="0" />
        </g>
        <g
           id="g1409"
           transform="translate(586.5107,404.1328)">
          <path
             d="M 0,0 C 0,46.944 -38.055,85 -84.999,85 V -84.998 C -38.055,-84.998 0,-46.943 0,0"
             style="fill:#27a096;fill-opacity:1;fill-rule:nonzero;stroke:none"
             id="path1411"
             inkscape:connector-curvature="0" />
        </g>
      </g>
    </g>
    <g
       transform="matrix(0.35277777,0,0,-0.35277777,-114.17813,197.66434)"
       id="g1413">
      <g
         id="g1415"
         clip-path="url(#clipPath1419)">
        <g
           id="g1421"
           transform="translate(538.8711,434.0039)">
          <path
             d="m 0,0 c 0,20.547 -16.656,37.202 -37.201,37.202 -20.547,0 -37.202,-16.655 -37.202,-37.202 0,-20.546 16.655,-37.201 37.202,-37.201 C -16.656,-37.201 0,-20.546 0,0"
             style="fill:#61402f;fill-opacity:1;fill-rule:nonzero;stroke:none"
             id="path1423"
             inkscape:connector-curvature="0" />
        </g>
        <g
           id="g1425"
           transform="translate(514.1152,354.3379)">
          <path
             d="M 0,0 -12.604,-35.355 -24.893,0 V 27.295 H 0 Z"
             style="fill:#eac8ad;fill-opacity:1;fill-rule:nonzero;stroke:none"
             id="path1427"
             inkscape:connector-curvature="0" />
        </g>
        <g
           id="g1429"
           transform="translate(501.6689,457.2803)">
          <path
             d="m 0,0 c -12.086,0 -31.199,-6.871 -31.199,-39.066 0,-18.589 7.245,-27.354 9.886,-30.723 2.431,-3.1 14.904,-13.118 21.313,-13.118 z"
             style="fill:#f2d7bc;fill-opacity:1;fill-rule:nonzero;stroke:none"
             id="path1431"
             inkscape:connector-curvature="0" />
        </g>
        <g
           id="g1433"
           transform="translate(464.457,410.5371)">
          <path
             d="M 0,0 C -0.533,5.145 1.919,9.709 5.474,10.197 9.031,10.685 12.346,6.909 12.879,1.766 13.412,-3.377 10.96,-7.941 7.404,-8.43 3.848,-8.917 0.533,-5.143 0,0"
             style="fill:#f2d7bc;fill-opacity:1;fill-rule:nonzero;stroke:none"
             id="path1435"
             inkscape:connector-curvature="0" />
        </g>
        <g
           id="g1437"
           transform="translate(501.5703,457.2803)">
          <path
             d="m 0,0 c 12.086,0 31.199,-6.871 31.199,-39.066 0,-18.589 -7.245,-27.354 -9.886,-30.723 C 18.883,-72.889 6.41,-82.907 0,-82.907 Z"
             style="fill:#eac0a7;fill-opacity:1;fill-rule:nonzero;stroke:none"
             id="path1439"
             inkscape:connector-curvature="0" />
        </g>
        <g
           id="g1441"
           transform="translate(538.8809,410.5371)">
          <path
             d="M 0,0 C 0.533,5.145 -1.918,9.709 -5.474,10.197 -9.03,10.685 -12.345,6.909 -12.879,1.766 -13.412,-3.377 -10.96,-7.941 -7.403,-8.43 -3.848,-8.917 -0.533,-5.143 0,0"
             style="fill:#eac0a7;fill-opacity:1;fill-rule:nonzero;stroke:none"
             id="path1443"
             inkscape:connector-curvature="0" />
        </g>
        <g
           id="g1445"
           transform="translate(501.2598,465.0791)">
          <path
             d="m 0,0 c -0.58,0.074 -1.185,0.124 -1.834,0.131 0,0 -20.414,-1.529 -26.096,-28.117 -2.726,-2.045 -7.726,-9.998 -1.135,-18.862 0.908,7.5 3.655,12.932 8.407,14.999 8.432,3.668 11.904,0.26 21.676,7.758 5.707,4.38 7.758,13.187 6.497,18.108 C 5.245,0.131 -0.549,-0.099 0,0"
             style="fill:#61402f;fill-opacity:1;fill-rule:nonzero;stroke:none"
             id="path1447"
             inkscape:connector-curvature="0" />
        </g>
        <g
           id="g1449"
           transform="translate(507.4824,457.6914)">
          <path
             d="M 0,0 C 0,0 -7.357,-27.451 24.77,-38.944 32.467,-13.816 18.405,2.575 0,0"
             style="fill:#61402f;fill-opacity:1;fill-rule:nonzero;stroke:none"
             id="path1451"
             inkscape:connector-curvature="0" />
        </g>
        <g
           id="g1453"
           transform="translate(501.5117,318.9824)">
          <path
             d="m 0,0 v 34 c 0,0 -9.286,2.301 -11.334,9.823 -0.982,3.615 -0.955,6.517 -0.955,6.517 0,0 -20.305,-6.859 -24.838,-13.942 C -40.899,25.17 -41.934,0 -41.934,0 Z"
             style="fill:#eac8ad;fill-opacity:1;fill-rule:nonzero;stroke:none"
             id="path1455"
             inkscape:connector-curvature="0" />
        </g>
        <g
           id="g1457"
           transform="translate(501.5117,318.9824)">
          <path
             d="m 0,0 v 34 c 0,0 9.286,2.301 11.334,9.823 0.982,3.615 0.955,6.517 0.955,6.517 0,0 20.305,-6.859 24.838,-13.942 C 40.899,25.17 41.934,0 41.934,0 Z"
             style="fill:#eac8ad;fill-opacity:1;fill-rule:nonzero;stroke:none"
             id="path1459"
             inkscape:connector-curvature="0" />
        </g>
        <g
           id="g1461"
           transform="translate(501.6699,385.7119)">
          <path
             d="M 0,0 C 4.711,0 8.53,2.893 8.53,6.462 H -8.531 C -8.531,2.893 -4.712,0 0,0"
             style="fill:#ffffff;fill-opacity:1;fill-rule:nonzero;stroke:none"
             id="path1463"
             inkscape:connector-curvature="0" />
        </g>
        <g
           id="g1465"
           transform="translate(513.4141,471.2061)">
          <path
             d="m 0,0 c 0,6.486 -5.258,11.744 -11.744,11.744 -6.486,0 -11.745,-5.258 -11.745,-11.744 0,-6.486 5.259,-11.744 11.745,-11.744 C -5.258,-11.744 0,-6.486 0,0"
             style="fill:#61402f;fill-opacity:1;fill-rule:nonzero;stroke:none"
             id="path1467"
             inkscape:connector-curvature="0" />
        </g>
        <g
           id="g1469"
           transform="translate(501.5117,344.4199)">
          <path
             d="m 0,0 c -10.395,0 -18.841,9.944 -19.066,22.312 -4.109,-1.709 -5.779,-2.3 -8.842,-4.166 -0.36,-2.495 -3.111,-9.367 -4.392,-19.709 -1.263,-10.192 1.7,-23.875 1.7,-23.875 H 0 Z"
             style="fill:#90c53f;fill-opacity:1;fill-rule:nonzero;stroke:none"
             id="path1471"
             inkscape:connector-curvature="0" />
        </g>
        <g
           id="g1473"
           transform="translate(501.5117,344.4199)">
          <path
             d="m 0,0 c 10.395,0 18.841,9.944 19.066,22.312 4.109,-1.709 5.779,-2.3 8.842,-4.166 0.36,-2.495 3.111,-9.367 4.392,-19.709 1.263,-10.192 -1.7,-23.875 -1.7,-23.875 H 0 Z"
             style="fill:#5fa63c;fill-opacity:1;fill-rule:nonzero;stroke:none"
             id="path1475"
             inkscape:connector-curvature="0" />
        </g>
      </g>
    </g>
  </g>
</svg>
