<?xml version="1.0" encoding="UTF-8" standalone="no"?>
<!-- Created with Inkscape (http://www.inkscape.org/) -->

<svg
   xmlns:dc="http://purl.org/dc/elements/1.1/"
   xmlns:cc="http://creativecommons.org/ns#"
   xmlns:rdf="http://www.w3.org/1999/02/22-rdf-syntax-ns#"
   xmlns:svg="http://www.w3.org/2000/svg"
   xmlns="http://www.w3.org/2000/svg"
   xmlns:sodipodi="http://sodipodi.sourceforge.net/DTD/sodipodi-0.dtd"
   xmlns:inkscape="http://www.inkscape.org/namespaces/inkscape"
   width="210mm"
   height="297mm"
   viewBox="0 0 210 297"
   version="1.1"
   id="svg2699"
   inkscape:version="0.92.4 (5da689c313, 2019-01-14)"
   sodipodi:docname="face4.svg">
  <defs
     id="defs2693">
    <clipPath
       clipPathUnits="userSpaceOnUse"
       id="clipPath1759">
      <path
         d="m 10.471,656.227 c 0,-46.945 38.054,-85.001 84.998,-85.001 v 0 c 46.944,0 85,38.056 85,85.001 v 0 c 0,46.944 -38.056,85 -85,85 v 0 c -46.944,0 -84.998,-38.056 -84.998,-85"
         id="path1757"
         inkscape:connector-curvature="0" />
    </clipPath>
    <clipPath
       clipPathUnits="userSpaceOnUse"
       id="clipPath1743">
      <path
         d="M 0,800 H 800 V 0 H 0 Z"
         id="path1741"
         inkscape:connector-curvature="0" />
    </clipPath>
    <clipPath
       clipPathUnits="userSpaceOnUse"
       id="clipPath1583">
      <path
         d="m 213.489,656.227 c 0,-46.945 38.055,-85.002 85,-85.002 v 0 c 46.945,0 84.999,38.057 84.999,85.002 v 0 c 0,46.944 -38.054,85 -84.999,85 v 0 c -46.945,0 -85,-38.056 -85,-85"
         id="path1581"
         inkscape:connector-curvature="0" />
    </clipPath>
    <clipPath
       clipPathUnits="userSpaceOnUse"
       id="clipPath1567">
      <path
         d="M 0,800 H 800 V 0 H 0 Z"
         id="path1565"
         inkscape:connector-curvature="0" />
    </clipPath>
    <clipPath
       clipPathUnits="userSpaceOnUse"
       id="clipPath1335">
      <path
         d="m 213.49,143.773 c 0,-46.943 38.055,-84.999 85,-84.999 v 0 c 46.944,0 85,38.056 85,84.999 v 0 c 0,46.946 -38.056,85.002 -85,85.002 v 0 c -46.945,0 -85,-38.056 -85,-85.002"
         id="path1333"
         inkscape:connector-curvature="0" />
    </clipPath>
    <clipPath
       clipPathUnits="userSpaceOnUse"
       id="clipPath1319">
      <path
         d="M 0,800 H 800 V 0 H 0 Z"
         id="path1317"
         inkscape:connector-curvature="0" />
    </clipPath>
  </defs>
  <sodipodi:namedview
     id="base"
     pagecolor="#ffffff"
     bordercolor="#666666"
     borderopacity="1.0"
     inkscape:pageopacity="0.0"
     inkscape:pageshadow="2"
     inkscape:zoom="0.35"
     inkscape:cx="-214.28571"
     inkscape:cy="560"
     inkscape:document-units="mm"
     inkscape:current-layer="layer1"
     showgrid="false"
     inkscape:window-width="1920"
     inkscape:window-height="1001"
     inkscape:window-x="2391"
     inkscape:window-y="-9"
     inkscape:window-maximized="1" />
  <metadata
     id="metadata2696">
    <rdf:RDF>
      <cc:Work
         rdf:about="">
        <dc:format>image/svg+xml</dc:format>
        <dc:type
           rdf:resource="http://purl.org/dc/dcmitype/StillImage" />
        <dc:title></dc:title>
      </cc:Work>
    </rdf:RDF>
  </metadata>
  <g
     inkscape:label="Layer 1"
     inkscape:groupmode="layer"
     id="layer1">
    <g
       transform="matrix(0.35277777,0,0,-0.35277777,-19.121995,200.30927)"
       id="g1313">
      <g
         id="g1315"
         clip-path="url(#clipPath1319)">
        <g
           id="g1321"
           transform="translate(383.4888,143.7744)">
          <path
             d="m 0,0 c 0,46.943 -38.056,84.998 -85,84.998 -46.943,0 -84.998,-38.055 -84.998,-84.998 0,-46.944 38.055,-85 84.998,-85 46.944,0 85,38.056 85,85"
             style="fill:#b5332b;fill-opacity:1;fill-rule:nonzero;stroke:none"
             id="path1323"
             inkscape:connector-curvature="0" />
        </g>
        <g
           id="g1325"
           transform="translate(383.4888,143.7744)">
          <path
             d="M 0,0 C 0,46.943 -38.056,84.998 -85,84.998 V -85 c 46.944,0 85,38.056 85,85"
             style="fill:#a22d26;fill-opacity:1;fill-rule:nonzero;stroke:none"
             id="path1327"
             inkscape:connector-curvature="0" />
        </g>
      </g>
    </g>
    <g
       transform="matrix(0.35277777,0,0,-0.35277777,-19.121995,200.30927)"
       id="g1329">
      <g
         id="g1331"
         clip-path="url(#clipPath1335)">
        <g
           id="g1337"
           transform="translate(298.6475,81.2578)">
          <path
             d="m 0,0 h -30.409 c 0,0 -14.035,13.568 -7.018,33.686 7.018,20.115 13.1,28.068 13.568,49.587 H 0 Z"
             style="fill:#870b16;fill-opacity:1;fill-rule:nonzero;stroke:none"
             id="path1339"
             inkscape:connector-curvature="0" />
        </g>
        <g
           id="g1341"
           transform="translate(297.8623,81.2578)">
          <path
             d="m 0,0 h 30.409 c 0,0 14.035,13.568 7.017,33.686 C 30.409,53.801 24.327,61.754 23.859,83.273 H 0 Z"
             style="fill:#870b16;fill-opacity:1;fill-rule:nonzero;stroke:none"
             id="path1343"
             inkscape:connector-curvature="0" />
        </g>
        <g
           id="g1345"
           transform="translate(335.8491,173.6445)">
          <path
             d="m 0,0 c 0,20.547 -16.656,37.202 -37.202,37.202 -20.546,0 -37.201,-16.655 -37.201,-37.202 0,-20.546 16.655,-37.201 37.201,-37.201 C -16.656,-37.201 0,-20.546 0,0"
             style="fill:#870b16;fill-opacity:1;fill-rule:nonzero;stroke:none"
             id="path1347"
             inkscape:connector-curvature="0" />
        </g>
        <g
           id="g1349"
           transform="translate(311.0938,93.9785)">
          <path
             d="M 0,0 -12.604,-35.355 -24.893,0 V 27.295 H 0 Z"
             style="fill:#eac8ad;fill-opacity:1;fill-rule:nonzero;stroke:none"
             id="path1351"
             inkscape:connector-curvature="0" />
        </g>
        <g
           id="g1353"
           transform="translate(298.647,196.9209)">
          <path
             d="m 0,0 c -12.086,0 -31.199,-6.871 -31.199,-39.067 0,-18.588 7.245,-27.352 9.886,-30.721 2.431,-3.1 14.904,-13.119 21.313,-13.119 z"
             style="fill:#f2d7bc;fill-opacity:1;fill-rule:nonzero;stroke:none"
             id="path1355"
             inkscape:connector-curvature="0" />
        </g>
        <g
           id="g1357"
           transform="translate(261.4351,150.1777)">
          <path
             d="M 0,0 C -0.533,5.145 1.919,9.709 5.474,10.197 9.031,10.685 12.345,6.909 12.879,1.766 13.412,-3.377 10.96,-7.941 7.404,-8.43 3.848,-8.916 0.533,-5.143 0,0"
             style="fill:#f2d7bc;fill-opacity:1;fill-rule:nonzero;stroke:none"
             id="path1359"
             inkscape:connector-curvature="0" />
        </g>
        <g
           id="g1361"
           transform="translate(298.5488,196.9209)">
          <path
             d="m 0,0 c 12.086,0 31.199,-6.871 31.199,-39.067 0,-18.588 -7.245,-27.352 -9.886,-30.721 C 18.882,-72.888 6.409,-82.907 0,-82.907 Z"
             style="fill:#eac0a7;fill-opacity:1;fill-rule:nonzero;stroke:none"
             id="path1363"
             inkscape:connector-curvature="0" />
        </g>
        <g
           id="g1365"
           transform="translate(335.8589,150.1777)">
          <path
             d="M 0,0 C 0.533,5.145 -1.918,9.709 -5.474,10.197 -9.03,10.685 -12.345,6.909 -12.878,1.766 -13.412,-3.377 -10.96,-7.941 -7.403,-8.43 -3.848,-8.916 -0.533,-5.143 0,0"
             style="fill:#eac0a7;fill-opacity:1;fill-rule:nonzero;stroke:none"
             id="path1367"
             inkscape:connector-curvature="0" />
        </g>
        <g
           id="g1369"
           transform="translate(298.2373,204.7188)">
          <path
             d="m 0,0 c -0.58,0.074 -1.184,0.125 -1.833,0.131 0,0 -20.415,-1.528 -26.096,-28.116 -2.727,-2.045 -7.726,-9.999 -1.136,-18.862 0.908,7.499 3.656,12.931 8.407,14.999 8.433,3.668 11.905,0.26 21.676,7.758 5.707,4.38 7.759,13.186 6.497,18.108 C 5.246,0.131 -0.549,-0.098 0,0"
             style="fill:#870b16;fill-opacity:1;fill-rule:nonzero;stroke:none"
             id="path1371"
             inkscape:connector-curvature="0" />
        </g>
        <g
           id="g1373"
           transform="translate(304.4609,197.332)">
          <path
             d="M 0,0 C 0,0 -7.358,-27.451 24.769,-38.945 32.467,-13.816 18.405,2.575 0,0"
             style="fill:#870b16;fill-opacity:1;fill-rule:nonzero;stroke:none"
             id="path1375"
             inkscape:connector-curvature="0" />
        </g>
        <g
           id="g1377"
           transform="translate(267.8745,144.8594)">
          <path
             d="M 0,0 -2.003,-2.004 0,-4.006 2.003,-2.004 Z"
             style="fill:#fff200;fill-opacity:1;fill-rule:nonzero;stroke:none"
             id="path1379"
             inkscape:connector-curvature="0" />
        </g>
        <g
           id="g1381"
           transform="translate(329.8462,144.8594)">
          <path
             d="M 0,0 -2.003,-2.004 0,-4.006 2.004,-2.004 Z"
             style="fill:#fff200;fill-opacity:1;fill-rule:nonzero;stroke:none"
             id="path1383"
             inkscape:connector-curvature="0" />
        </g>
        <g
           id="g1385"
           transform="translate(298.4897,58.623)">
          <path
             d="m 0,0 v 34 c 0,0 -9.286,2.301 -11.333,9.824 -0.984,3.615 -0.956,6.516 -0.956,6.516 0,0 -20.305,-6.858 -24.838,-13.942 C -40.899,25.17 -41.934,0 -41.934,0 Z"
             style="fill:#f8a41d;fill-opacity:1;fill-rule:nonzero;stroke:none"
             id="path1387"
             inkscape:connector-curvature="0" />
        </g>
        <g
           id="g1389"
           transform="translate(298.4897,58.623)">
          <path
             d="m 0,0 v 34 c 0,0 9.286,2.301 11.333,9.824 0.984,3.615 0.956,6.516 0.956,6.516 0,0 20.305,-6.858 24.838,-13.942 C 40.899,25.17 41.934,0 41.934,0 Z"
             style="fill:#f98e1c;fill-opacity:1;fill-rule:nonzero;stroke:none"
             id="path1391"
             inkscape:connector-curvature="0" />
        </g>
        <g
           id="g1393"
           transform="translate(298.6475,125.3535)">
          <path
             d="M 0,0 C 4.711,0 8.531,2.893 8.531,6.461 H -8.531 C -8.531,2.893 -4.711,0 0,0"
             style="fill:#ffffff;fill-opacity:1;fill-rule:nonzero;stroke:none"
             id="path1395"
             inkscape:connector-curvature="0" />
        </g>
      </g>
    </g>
  </g>
</svg>
