<!-- Generated by IcoMoon.io -->
<svg version="1.1" xmlns="http://www.w3.org/2000/svg" width="640" height="640" viewBox="10 10 620 620">
<title></title>
<g id="icomoon-ignore">
</g>
<path fill="#ffffff" d="M436.297 313.417c-6.583-6.583-15.36-10.971-26.331-10.971s-19.749 4.389-26.331 10.971c-2.194 2.194 0 6.583 2.194 6.583h48.274c2.194 0 4.389-4.389 2.194-6.583zM436.297 313.417c-6.583-6.583-15.36-10.971-26.331-10.971s-19.749 4.389-26.331 10.971c-2.194 2.194 0 6.583 2.194 6.583h48.274c2.194 0 4.389-4.389 2.194-6.583zM320 12.8c-168.96 0-307.2 138.24-307.2 307.2s138.24 307.2 307.2 307.2c168.96 0 307.2-138.24 307.2-307.2s-138.24-307.2-307.2-307.2zM366.080 232.229c0-2.194 2.194-6.583 6.583-6.583h68.023c2.194 0 6.583 2.194 6.583 6.583v17.554c0 2.194-2.194 6.583-6.583 6.583h-68.023c-2.194 0-6.583-2.194-6.583-6.583zM256.366 418.743h-94.354c-4.389 0-6.583-2.194-6.583-6.583v-186.514c0-4.389 2.194-6.583 6.583-6.583h85.577c30.72 0 54.857 24.137 57.051 54.857 0 10.971-2.194 19.749-6.583 28.526 0 2.194 0 4.389 0 4.389 15.36 10.971 24.137 30.72 24.137 50.469 0 32.914-30.72 61.44-65.829 61.44zM484.571 344.137c0 4.389-2.194 6.583-6.583 6.583h-100.937c-2.194 0-4.389 2.194-4.389 6.583 6.583 15.36 19.749 26.331 37.303 26.331 8.777 0 17.554-2.194 24.137-8.777 2.194-2.194 2.194-2.194 4.389-2.194h35.109c2.194 0 4.389 2.194 2.194 4.389s-2.194 6.583-4.389 8.777c-13.166 21.943-37.303 35.109-63.634 35.109-41.691 0-76.8-35.109-76.8-78.994s35.109-78.994 76.8-78.994c41.691 2.194 76.8 37.303 76.8 81.189zM407.771 302.446c-10.971 0-19.749 4.389-26.331 10.971-2.194 2.194 0 6.583 2.194 6.583h48.274c4.389 0 6.583-4.389 2.194-6.583-6.583-8.777-15.36-10.971-26.331-10.971zM258.56 328.777h-61.44c-2.194 0-4.389 2.194-4.389 4.389v43.886c0 2.194 2.194 4.389 4.389 4.389h61.44c15.36 0 26.331-10.971 26.331-26.331 0-13.166-10.971-26.331-26.331-26.331zM197.12 291.474h50.469c10.971 0 17.554-8.777 17.554-17.554 0-10.971-8.777-17.554-17.554-17.554h-50.469c-2.194 0-4.389 2.194-4.389 4.389v28.526c0 0 2.194 2.194 4.389 2.194z"></path>
</svg>
