<!-- Generated by IcoMoon.io -->
<svg version="1.1" xmlns="http://www.w3.org/2000/svg" width="640" height="640" viewBox="10 10 620 620">
<title></title>
<g id="icomoon-ignore">
</g>
<path fill="#ffffff"  d="M328.32 319.424c1.056-0.384 2.176-0.672 3.296-0.992-2.656-5.92-5.6-12.064-8.928-18.688-60.16 17.824-117.76 17.984-128.032 17.824-0.096 0.8-0.096 1.632-0.096 2.432 0 30.24 10.88 59.296 30.656 82.112 6.592-10.624 41.536-62.752 103.104-82.688zM243.936 419.616c22.048 16.896 48.384 25.824 76.064 25.824 16.544 0 32.608-3.2 47.808-9.44-2.112-12.192-9.44-49.312-26.304-93.504-67.872 24-93.504 69.184-97.568 77.12zM401.76 224.864c-22.752-19.552-51.744-30.304-81.76-30.304-9.088 0-18.208 0.992-27.2 3.008 6.56 8.8 26.624 36.672 45.472 71.136 41.056-15.776 59.616-38.528 63.488-43.84zM310.56 277.248c-19.456-34.304-39.712-62.56-45.28-70.112-34.144 16.544-59.264 48.192-67.616 85.056h0.544c12.992 0 59.168-1.056 112.352-14.944zM368.448 335.872c14.88 41.376 21.728 75.744 23.68 86.752 27.264-19.2 45.888-48.672 51.488-81.376-5.568-1.696-25.664-7.072-50.944-7.072-8.256 0-16.416 0.576-24.224 1.696zM320 12.8c-169.664 0-307.2 137.536-307.2 307.2s137.536 307.2 307.2 307.2 307.2-137.536 307.2-307.2-137.536-307.2-307.2-307.2zM320 470.304c-82.944 0-150.368-67.424-150.368-150.304 0-82.944 67.424-150.368 150.368-150.368 82.912 0 150.336 67.456 150.336 150.368 0 82.88-67.424 150.304-150.336 150.304zM349.504 290.368c2.784 5.76 5.376 11.424 7.744 16.992 0.736 1.824 1.536 3.616 2.272 5.44 8.864-1.056 18.336-1.568 28.224-1.568 27.328 0 50.016 4 57.632 5.504-0.704-27.2-10.336-53.632-27.264-74.88-5.12 6.592-26.176 30.816-68.608 48.512z"></path>
</svg>
