<!-- Generated by IcoMoon.io -->
<svg version="1.1" xmlns="http://www.w3.org/2000/svg" width="640" height="640" viewBox="10 10 620 620">
<title></title>
<g id="icomoon-ignore">
</g>
<path fill="#ffffff" d="M320 12.8c-169.664 0-307.2 137.536-307.2 307.2s137.536 307.2 307.2 307.2 307.2-137.536 307.2-307.2-137.536-307.2-307.2-307.2zM402.464 452.512c-12.576 6.016-23.936 10.176-34.112 12.64-10.176 2.368-21.184 3.616-32.992 3.616-13.44 0-25.312-1.76-35.648-5.184s-19.136-8.32-26.432-14.688c-7.296-6.304-12.352-13.12-15.168-20.256-2.816-7.2-4.224-17.568-4.224-31.136v-104.384h-32.512v-42.048c11.488-3.808 21.44-9.248 29.664-16.384 8.224-7.072 14.848-15.552 19.808-25.504 4.992-9.92 8.416-22.624 10.304-37.92h41.824v75.2h69.76v46.656h-69.76v76.32c0 17.248 0.896 28.32 2.72 33.184 1.792 4.928 5.152 8.8 10.080 11.744 6.528 3.936 13.984 5.92 22.304 5.92 14.912 0 29.696-4.928 44.416-14.752v46.976z"></path>
</svg>
